<?xml version="1.0" encoding="utf-8"?>
<!-- Generator: Adobe Illustrator 22.0.1, SVG Export Plug-In . SVG Version: 6.00 Build 0)  -->
<svg version="1.1" id="Layer_2" xmlns="http://www.w3.org/2000/svg"
  xmlns:xlink="http://www.w3.org/1999/xlink" x="0px" y="0px"
  viewBox="0 0 506.9 280.3" style="enable-background:new 0 0 506.9 280.3;" xml:space="preserve">
<style type="text/css">
	.st0{fill:#FFFFFF;}
	.st1{fill:#FBAF33;}
</style>
<g>
	<path class="st0" d="M477,170.2v12.8h1.6v-5.8h2.3c1.7,0,2,0.2,2.8,1.8l1.9,3.9h1.7l-2.2-4.6c-0.6-1.2-0.8-1.5-1.4-1.7
		c1.5-0.5,2.5-1.6,2.5-3.1c0-1.2-0.5-2.2-1.6-2.8c-0.8-0.5-1.6-0.6-3.4-0.6H477L477,170.2z M478.6,171.6h2.6c2.4,0,3.4,0.6,3.4,2.1
		c0,0.6-0.3,1.2-0.8,1.6c-0.6,0.5-1.3,0.6-2.8,0.6h-2.3V171.6L478.6,171.6z M481.6,165.2c-6.5,0-11.7,5.1-11.7,11.6
		c0,6.4,5.2,11.6,11.6,11.6c6.3,0,11.5-5.2,11.5-11.6C493,170.5,487.8,165.2,481.6,165.2L481.6,165.2z M481.6,166.4
		c5.5,0,10.1,4.8,10.1,10.5c0,5.7-4.6,10.4-10.3,10.4c-5.7,0-10.3-4.7-10.3-10.4C471.2,171,475.8,166.4,481.6,166.4L481.6,166.4z"/>
	<path class="st0" d="M27.7,240.7c-2.2-0.6-4.1-0.9-6.4-0.9c-6,0-9.7,2.4-9.7,6.3c0,2.8,1.5,4.4,5.8,6.3l3.7,1.6
		c2.1,0.9,2.7,1.2,3.2,1.6c1.1,0.9,1.7,1.9,1.7,3.1c0,2.8-2.9,4.5-7.1,4.5c-2.3,0-4.4-0.5-6.9-1.5l-0.3,2.8c2.4,0.8,4.7,1.1,7.1,1.1
		c6.2,0,10.3-2.8,10.3-7c0-2.2-1.1-3.9-3.2-5.1c-0.8-0.4-2.4-1.2-3.6-1.8l-3.4-1.5c-3-1.3-4.2-2.5-4.2-4.1c0-2.5,2.7-3.9,6.7-3.9
		c2,0,3.8,0.3,5.9,1.1L27.7,240.7L27.7,240.7z"/>
	<path class="st0" d="M80.1,239.8c-8.3,0-13.9,5.1-13.9,12.9c0,7.8,5.6,12.9,13.9,12.9c8.4,0,13.8-5.2,13.8-13
		C93.9,244.9,88.6,239.8,80.1,239.8L80.1,239.8z M80,242.2c6.6,0,10.7,4,10.7,10.6c0,6.5-4.2,10.6-10.7,10.6
		c-6.5,0-10.7-4.1-10.7-10.6C69.3,246.1,73.6,242.2,80,242.2L80,242.2z"/>
	<polygon class="st0" points="136.4,240.2 136.4,265.2 139.4,265.2 139.4,253.5 151.2,253.5 151.2,250.9 139.4,250.9 139.4,242.8 
		151.6,242.8 151.6,240.2 136.4,240.2 	"/>
	<polygon class="st0" points="212.8,240.2 191.1,240.2 191.1,242.8 200.4,242.8 200.4,265.2 203.4,265.2 203.4,242.8 212.8,242.8 
		212.8,240.2 	"/>
	<path class="st0" d="M289.9,240.2h-3l-4.6,13c-1.1,3.1-0.6,1.7-1.6,4.6l-0.4,1.1c-0.1,0.3-0.2,0.7-0.3,1c-0.5,1.7-0.8,2.9-0.8,4
		c-0.5-2.4-0.8-3.2-2.2-7.4c-0.3-0.7,0.1,0.3-1.2-3.2l-4.8-13.1h-3.8l-4.6,13.1c-0.2,0.5-0.5,1.5-1,2.9c-0.8,2.2-1.1,3.3-1.4,4.2
		c-0.5,1.4-0.6,2-0.9,3.5c-0.4-2.1-1-4-3.2-10.4l-4.7-13.3h-3.1l9.1,25h3.8l6-16.7c0.1-0.3,0.2-0.7,0.5-1.3c0.5-1.6,0.7-2.2,0.9-2.8
		c0.4-1.3,0.5-1.9,0.7-2.9c0.3,1.6,0.5,2.2,1.1,4.1c0.5,1.4,0.8,2.4,1,2.9l6.1,16.7h3.8L289.9,240.2L289.9,240.2z"/>
	<path class="st0" d="M337.9,240.2h-3.6l-12.6,25h3l3.3-6.5h16.1l3.3,6.5h3.2L337.9,240.2L337.9,240.2z M342.8,256.2h-13.5
		c0,0,5.1-10.2,5.5-11.1c0.4-0.9,0.8-1.7,1.3-2.7c0.4,0.9,0.7,1.7,1.2,2.7C337.7,246,342.8,256.2,342.8,256.2L342.8,256.2z"/>
	<path class="st0" d="M389.2,240.2v25h3v-11.3h2.5h0.9c1.5,0,2.6,0.1,3.5,0.6c0.8,0.6,1.2,1,2.3,3l4.3,7.7h3.3l-5-8.7
		c-1.6-2.8-2.2-3.4-4.3-3.7c1.6-0.2,2.5-0.4,3.3-0.8c2.2-1,3.6-3.1,3.6-5.3c0-2.2-1.1-4.1-3.3-5.2c-1.7-0.9-3.8-1.2-8-1.2H389.2
		L389.2,240.2z M392.2,242.6h3c2.5,0,4.5,0.1,5.5,0.4c2,0.6,3,2.1,3,3.8c0,1.3-0.4,2.5-1.9,3.5c-1.5,1-3.7,1.1-7,1.1h-2.5V242.6
		L392.2,242.6z"/>
	<polygon class="st0" points="450.2,240.2 450.2,265.2 466,265.2 466,262.7 453.2,262.7 453.2,253.6 464.9,253.6 464.9,251 
		453.2,251 453.2,242.8 465.5,242.8 465.5,240.2 450.2,240.2 	"/>
	<path class="st0" d="M108.1,195.1c0-15-11.3-29.2-30.5-29.2c-9.7,0-42.4,0-51.9,0c-9.2,0-14.8,6.8-14.7,14.2c0,0,63.2,0,65.4,0
		c11.3,0,16.4,7.2,16.4,15c0,7.7-5,15-16.4,15c-3.1,0-49.1,0-50.6,0c-9.2,0-14.7,6.8-14.7,14.1c1.7,0,59.2,0,66.6,0
		C96.8,224.2,108.1,210.1,108.1,195.1L108.1,195.1z"/>
	<path class="st0" d="M110.2,222.6c0,0,23.9-39.7,27.4-45.6c1.5-2.6,6.3-11.6,17.5-11.6c11.2,0,16,9.1,17.5,11.6
		c3.6,5.9,27.4,45.6,27.4,45.6s-3.7,2.3-7.7,2.3c-4.2,0-9.8-1.8-13.5-8c-4-6.7-19.7-32.8-20.5-34.1c-0.3-0.6-1.2-1.7-3.2-1.7
		c-2,0-2.9,1.2-3.2,1.7c-0.6,0.9-16.5,27.4-20.5,34.1c-3.9,6.6-9.7,8-13.5,8C113.8,224.9,110.2,222.6,110.2,222.6L110.2,222.6z"/>
	<path class="st0" d="M264.8,224.2c0,0-36.6,0-39.5,0c-4.4,0-9.9-1.5-13.9-6.1c-2.6-2.9-4.6-7.1-4.6-12c0-5.2,0-24.1,0-26.1
		c0-2.2,0.4-6,4.2-10.1c2.6-2.9,6.9-4.6,10.7-4.6c0,0,0,39.8,0,40.7c0,1.1,0.1,2.2,1,3c0.8,0.8,1.9,1,3.2,1c1.1,0,15.8,0,23.6,0
		c7.8,0,11.5,3.7,13.1,6.3C264.5,219.7,264.8,222.6,264.8,224.2L264.8,224.2z"/>
	<path class="st0" d="M264.8,224.2c0,0-36.6,0-39.5,0c-4.4,0-9.9-1.5-13.9-6.1c-2.6-2.9-4.6-7.1-4.6-12c0-5.2,0-24.1,0-26.1
		c0-2.2,0.4-6,4.2-10.1c2.6-2.9,6.9-4.6,10.7-4.6c0,0,0,39.8,0,40.7c0,1.1,0.1,2.2,1,3c0.8,0.8,1.9,1,3.2,1c1.1,0,15.8,0,23.6,0
		c7.8,0,11.5,3.7,13.1,6.3C264.5,219.6,264.8,222.5,264.8,224.2L264.8,224.2z"/>
	<path class="st0" d="M299,222.6c0,0,23.9-39.7,27.4-45.6c1.6-2.6,6.3-11.6,17.5-11.6c11.2,0,16,9.1,17.6,11.6
		c3.5,5.9,17.2,28.6,18.2,30.4c0.4,0.6,1.2,1.8,3.2,1.8c2,0,2.9-1.2,3.2-1.8c1-1.6,14.8-24.5,18.3-30.4c1.5-2.5,6.4-11.6,17.5-11.6
		c11.2,0,16,9.1,17.5,11.6c3.5,5.9,27.4,45.6,27.4,45.6s-3.7,2.3-7.7,2.3c-3.8,0-9.6-1.4-13.5-8c-4-6.7-19.8-32.8-20.5-34.1
		c-0.3-0.6-1.2-1.7-3.2-1.7c-2.1,0-2.9,1.2-3.2,1.7c-0.8,1.3-14.8,24.5-18.3,30.4c-2.3,3.8-7,11.6-17.5,11.6
		c-10.6,0-15.4-8-17.6-11.6c-3.6-5.9-17.7-29.5-18.3-30.4c-0.3-0.6-1.2-1.7-3.2-1.7c-2.1,0-2.9,1.2-3.2,1.7
		c-0.8,1.3-16.5,27.3-20.5,34.1c-3.7,6.2-9.3,8-13.5,8C302.8,224.9,299,222.6,299,222.6L299,222.6z"/>
	<path class="st0" d="M286.1,220.2c2.9-3.3,4.2-6.5,4.2-10.1c0-2.8,0-44.8,0-44.8c-3.7,0-8.1,1.8-10.7,4.6c-3.1,3.4-4.2,7-4.2,10.1
		c0,2.8,0,44.8,0,44.8C279.6,224.9,283.6,223.1,286.1,220.2L286.1,220.2z"/>
	<path class="st1" d="M146.3,74.4C121,75.7,100,85.2,92.4,97.2c5.6-2.6,11.9-4.7,18.8-5.9c25.1-4.4,47.5,3.9,50.1,18.5
		c1.6,9-4.7,18.3-15.5,25.1c1.2,0,2.4-0.1,3.6-0.1c32.2-1.7,57.7-16.6,56.8-33.3C205.3,84.9,178.5,72.7,146.3,74.4L146.3,74.4z
		 M272.7,141.3c53-8.7,90.9-32.9,90.9-60.7c0-35.5-61.6-64.3-137.5-64.3c-56.8,0-105.6,16.1-126.6,39.2
		c17.2-7.5,37.4-13.3,59.3-16.4C228.4,29.3,289,50.3,294,86c1.5,10.5-2,21.2-9.5,31.2c1.5-6.7,1.5-13.2-0.3-19.5
		c-8.7-30.2-55.1-44.5-111.2-37.4c36.9,5.3,63.3,20.8,65.1,41.2c1.4,15.7-12.1,31-34.4,42.5c7.6,0.6,15.4,0.9,23.4,0.9
		C243.1,145,258.4,143.7,272.7,141.3L272.7,141.3z"/>
</g>
</svg>
